# Blender v2.79 (sub 0) OBJ File: ''
# www.blender.org
mtllib sphere.mtl
o Sphere_Sphere.001
v 0.000000 -0.500000 -0.866025
v 0.000000 -0.000000 -1.000000
v 0.500000 -0.000000 -0.866025
v 0.433013 -0.500000 -0.750000
v 0.000000 0.500000 -0.866025
v 0.000000 0.866025 -0.500000
v 0.250000 0.866025 -0.433013
v 0.433013 0.500000 -0.750000
v 0.000000 -0.866025 -0.500000
v 0.250000 -0.866025 -0.433013
v -0.000000 1.000000 -0.000000
v 0.000000 -1.000000 -0.000000
v 0.750000 -0.500000 -0.433013
v 0.433013 -0.866025 -0.250000
v 0.750000 0.500000 -0.433013
v 0.866025 -0.000000 -0.500000
v 0.433013 0.866025 -0.250000
v 0.866025 -0.500000 -0.000000
v 0.500000 -0.866025 -0.000000
v 0.866025 0.500000 -0.000000
v 1.000000 -0.000000 -0.000000
v 0.500000 0.866025 -0.000000
v 0.750000 -0.500000 0.433012
v 0.433013 -0.866025 0.250000
v 0.750000 0.500000 0.433013
v 0.866025 -0.000000 0.500000
v 0.433013 0.866025 0.250000
v 0.433013 0.500000 0.750000
v 0.500000 -0.000000 0.866025
v 0.250000 0.866025 0.433012
v 0.250000 -0.866025 0.433012
v 0.433013 -0.500000 0.750000
v -0.000000 0.866025 0.500000
v 0.000000 -0.866025 0.500000
v -0.000000 -0.000000 1.000000
v -0.000000 -0.500000 0.866025
v -0.000000 0.500000 0.866025
v -0.250000 -0.866025 0.433012
v -0.500000 -0.000000 0.866025
v -0.433013 -0.500000 0.750000
v -0.250000 0.866025 0.433012
v -0.433013 0.500000 0.750000
v -0.433013 -0.866025 0.250000
v -0.866025 -0.000000 0.500000
v -0.750000 -0.500000 0.433012
v -0.433013 0.866025 0.250000
v -0.750000 0.500000 0.433012
v -0.500000 -0.866025 -0.000000
v -1.000000 -0.000000 -0.000000
v -0.866025 -0.500000 -0.000000
v -0.500000 0.866025 -0.000000
v -0.866025 0.500000 -0.000000
v -0.866025 -0.000000 -0.500000
v -0.750000 -0.500000 -0.433013
v -0.433012 0.866025 -0.250000
v -0.750000 0.500000 -0.433013
v -0.433013 -0.866025 -0.250000
v -0.250000 0.866025 -0.433013
v -0.433013 0.500000 -0.750000
v -0.433013 -0.500000 -0.750000
v -0.250000 -0.866025 -0.433013
v -0.500000 -0.000000 -0.866025
vn 0.2506 -0.2506 -0.9351
vn 0.1862 0.6947 -0.6947
vn 0.1862 -0.6947 -0.6947
vn 0.2506 0.2506 -0.9351
vn 0.0692 0.9636 -0.2582
vn 0.0692 -0.9636 -0.2582
vn 0.5086 -0.6947 -0.5086
vn 0.6846 0.2506 -0.6846
vn 0.1890 0.9636 -0.1890
vn 0.1890 -0.9636 -0.1890
vn 0.6846 -0.2506 -0.6846
vn 0.5086 0.6947 -0.5086
vn 0.6947 -0.6947 -0.1862
vn 0.9351 0.2506 -0.2506
vn 0.2582 0.9636 -0.0692
vn 0.2582 -0.9636 -0.0692
vn 0.9351 -0.2506 -0.2506
vn 0.6947 0.6947 -0.1862
vn 0.6947 -0.6947 0.1862
vn 0.9351 0.2506 0.2506
vn 0.2582 0.9636 0.0692
vn 0.2582 -0.9636 0.0692
vn 0.9351 -0.2506 0.2506
vn 0.6947 0.6947 0.1862
vn 0.6846 0.2506 0.6846
vn 0.1890 0.9636 0.1890
vn 0.1890 -0.9636 0.1890
vn 0.6846 -0.2506 0.6846
vn 0.5086 0.6947 0.5086
vn 0.5086 -0.6947 0.5086
vn 0.0692 0.9636 0.2582
vn 0.0692 -0.9636 0.2582
vn 0.2506 -0.2506 0.9351
vn 0.1862 0.6947 0.6947
vn 0.1862 -0.6947 0.6947
vn 0.2506 0.2506 0.9351
vn -0.0692 -0.9636 0.2582
vn -0.2506 -0.2506 0.9351
vn -0.1862 0.6947 0.6947
vn -0.1862 -0.6947 0.6947
vn -0.2506 0.2506 0.9351
vn -0.0692 0.9636 0.2582
vn -0.1890 -0.9636 0.1890
vn -0.6846 -0.2506 0.6846
vn -0.5086 0.6947 0.5086
vn -0.5086 -0.6947 0.5086
vn -0.6846 0.2506 0.6846
vn -0.1890 0.9636 0.1890
vn -0.2582 -0.9636 0.0692
vn -0.9351 -0.2506 0.2506
vn -0.6947 0.6947 0.1862
vn -0.6947 -0.6947 0.1862
vn -0.9351 0.2506 0.2506
vn -0.2582 0.9636 0.0692
vn -0.9351 -0.2506 -0.2506
vn -0.6947 0.6947 -0.1862
vn -0.6947 -0.6947 -0.1862
vn -0.9351 0.2506 -0.2506
vn -0.2582 0.9636 -0.0692
vn -0.2582 -0.9636 -0.0692
vn -0.5086 0.6947 -0.5086
vn -0.5086 -0.6947 -0.5086
vn -0.6846 0.2506 -0.6846
vn -0.1890 0.9636 -0.1890
vn -0.1890 -0.9636 -0.1890
vn -0.6846 -0.2506 -0.6846
vn -0.1862 -0.6947 -0.6947
vn -0.2506 0.2506 -0.9351
vn -0.0692 0.9636 -0.2582
vn -0.0692 -0.9636 -0.2582
vn -0.2506 -0.2506 -0.9351
vn -0.1862 0.6947 -0.6947
usemtl None
s off
f 1//1 2//1 3//1
f 3//1 4//1 1//1
f 5//2 6//2 7//2
f 7//2 8//2 5//2
f 9//3 1//3 4//3
f 4//3 10//3 9//3
f 2//4 5//4 8//4
f 8//4 3//4 2//4
f 6//5 11//5 7//5
f 12//6 9//6 10//6
f 10//7 4//7 13//7
f 13//7 14//7 10//7
f 3//8 8//8 15//8
f 15//8 16//8 3//8
f 7//9 11//9 17//9
f 12//10 10//10 14//10
f 4//11 3//11 16//11
f 16//11 13//11 4//11
f 8//12 7//12 17//12
f 17//12 15//12 8//12
f 14//13 13//13 18//13
f 18//13 19//13 14//13
f 16//14 15//14 20//14
f 20//14 21//14 16//14
f 17//15 11//15 22//15
f 12//16 14//16 19//16
f 13//17 16//17 21//17
f 21//17 18//17 13//17
f 15//18 17//18 22//18
f 22//18 20//18 15//18
f 19//19 18//19 23//19
f 23//19 24//19 19//19
f 21//20 20//20 25//20
f 25//20 26//20 21//20
f 22//21 11//21 27//21
f 12//22 19//22 24//22
f 18//23 21//23 26//23
f 26//23 23//23 18//23
f 20//24 22//24 27//24
f 27//24 25//24 20//24
f 26//25 25//25 28//25
f 28//25 29//25 26//25
f 27//26 11//26 30//26
f 12//27 24//27 31//27
f 23//28 26//28 29//28
f 29//28 32//28 23//28
f 25//29 27//29 30//29
f 30//29 28//29 25//29
f 24//30 23//30 32//30
f 32//30 31//30 24//30
f 30//31 11//31 33//31
f 12//32 31//32 34//32
f 32//33 29//33 35//33
f 35//33 36//33 32//33
f 28//34 30//34 33//34
f 33//34 37//34 28//34
f 31//35 32//35 36//35
f 36//35 34//35 31//35
f 29//36 28//36 37//36
f 37//36 35//36 29//36
f 12//37 34//37 38//37
f 36//38 35//38 39//38
f 39//38 40//38 36//38
f 37//39 33//39 41//39
f 41//39 42//39 37//39
f 34//40 36//40 40//40
f 40//40 38//40 34//40
f 35//41 37//41 42//41
f 42//41 39//41 35//41
f 33//42 11//42 41//42
f 12//43 38//43 43//43
f 40//44 39//44 44//44
f 44//44 45//44 40//44
f 42//45 41//45 46//45
f 46//45 47//45 42//45
f 38//46 40//46 45//46
f 45//46 43//46 38//46
f 39//47 42//47 47//47
f 47//47 44//47 39//47
f 41//48 11//48 46//48
f 12//49 43//49 48//49
f 45//50 44//50 49//50
f 49//50 50//50 45//50
f 47//51 46//51 51//51
f 51//51 52//51 47//51
f 43//52 45//52 50//52
f 50//52 48//52 43//52
f 44//53 47//53 52//53
f 52//53 49//53 44//53
f 46//54 11//54 51//54
f 50//55 49//55 53//55
f 53//55 54//55 50//55
f 52//56 51//56 55//56
f 55//56 56//56 52//56
f 48//57 50//57 54//57
f 54//57 57//57 48//57
f 49//58 52//58 56//58
f 56//58 53//58 49//58
f 51//59 11//59 55//59
f 12//60 48//60 57//60
f 56//61 55//61 58//61
f 58//61 59//61 56//61
f 57//62 54//62 60//62
f 60//62 61//62 57//62
f 53//63 56//63 59//63
f 59//63 62//63 53//63
f 55//64 11//64 58//64
f 12//65 57//65 61//65
f 54//66 53//66 62//66
f 62//66 60//66 54//66
f 61//67 60//67 1//67
f 1//67 9//67 61//67
f 5//68 2//68 62//68
f 62//68 59//68 5//68
f 58//69 11//69 6//69
f 12//70 61//70 9//70
f 2//71 1//71 60//71
f 60//71 62//71 2//71
f 59//72 58//72 6//72
f 6//72 5//72 59//72
